<svg xmlns="http://www.w3.org/2000/svg" viewBox="0 0 326.63 363.57"><defs><style>.cls-1{fill:#fff;}.cls-2{fill:none;stroke:#ff499e;stroke-miterlimit:10;stroke-width:5px;}</style></defs><g id="Layer_2" data-name="Layer 2"><g id="Layer_1-2" data-name="Layer 1"><path class="cls-1" d="M35.51,81.53H56.86a6,6,0,0,1,4.27,1.72,5.74,5.74,0,0,1,0,8.35,6,6,0,0,1-4.26,1.72H34.75A17.15,17.15,0,0,1,26,90.65a16.11,16.11,0,0,1-6.27-6L6.09,58.35A26.5,26.5,0,0,1,3.35,46.7,23.81,23.81,0,0,1,6,35.25l13.8-26a18.38,18.38,0,0,1,6.13-6.43,14.51,14.51,0,0,1,8-2.77H57.29a5.67,5.67,0,0,1,4.19,1.76A5.72,5.72,0,0,1,63.21,5.9a5.93,5.93,0,0,1-1.73,4.25,5.6,5.6,0,0,1-4.19,1.79H34.77q-2.82,0-4.58,3.3L17.07,39.67a14,14,0,0,0-1.54,6.81,15.08,15.08,0,0,0,1.68,7.31l12.52,24A6,6,0,0,0,35.51,81.53Z"/><path class="cls-1" d="M134,8.64l13,26.47a26.22,26.22,0,0,1,0,23.38l-13,26.2q-4.15,8.63-14.08,8.63a15.18,15.18,0,0,1-8.49-2.46,16,16,0,0,1-5.67-6.17L92.65,58.49A25.29,25.29,0,0,1,90,46.84a25.75,25.75,0,0,1,2.61-11.73L105.74,8.64Q110.18,0,119.9,0T134,8.64Zm-18,5.9L103.7,39.39A17.74,17.74,0,0,0,102,46.7a16.89,16.89,0,0,0,1.69,7.37l12.61,25.14a3.59,3.59,0,0,0,3.59,2.32,3.76,3.76,0,0,0,3.45-2.32L136,54.07a17.19,17.19,0,0,0,1.76-7.37A15.89,15.89,0,0,0,136,39.39l-12.4-24.85a3.93,3.93,0,0,0-3.73-2.74A4.31,4.31,0,0,0,116,14.54Z"/><path class="cls-1" d="M183.07,0h23.38a16.38,16.38,0,0,1,8.91,3,18.12,18.12,0,0,1,6.37,7l11.7,23.59a28.76,28.76,0,0,1,3.31,13.35,28.91,28.91,0,0,1-3.52,13.27L221.45,83.42a17.92,17.92,0,0,1-6.47,7.2,17.19,17.19,0,0,1-9.44,2.7H182.93a5.92,5.92,0,0,1-5.91-5.9,5.9,5.9,0,0,1,1.72-4.24,5.59,5.59,0,0,1,4.19-1.8h6.2V11.94h-6.06a5.62,5.62,0,0,1-4.19-1.79,5.92,5.92,0,0,1-1.72-4.25,5.71,5.71,0,0,1,1.72-4.14A5.67,5.67,0,0,1,183.07,0ZM201,11.94V81.53l4.14,0a6.31,6.31,0,0,0,5.9-3.86l11.7-23.17a18.89,18.89,0,0,0,2.2-7.65,15.76,15.76,0,0,0-1.76-7.3L211,15.52a6.48,6.48,0,0,0-6.19-3.58Z"/><path class="cls-1" d="M318.08,11.94H276.25V40.66h18a6,6,0,0,1,5.92,5.9,5.89,5.89,0,0,1-1.73,4.28,5.64,5.64,0,0,1-4.19,1.75h-18V81.53h42a5.73,5.73,0,0,1,4.15,1.72,5.8,5.8,0,0,1,0,8.35,6,6,0,0,1-4.26,1.72H264.41V0h53.67a5.85,5.85,0,0,1,4.26,1.79A5.78,5.78,0,0,1,324.13,6a5.58,5.58,0,0,1-1.79,4.14A5.9,5.9,0,0,1,318.08,11.94Z"/><path class="cls-1" d="M38.84,170.46v39.25l3.45,5.76h4.93l3.59-5.9V140a6.13,6.13,0,0,1,6.06-6A5.69,5.69,0,0,1,61,135.7a5.63,5.63,0,0,1,1.76,4.14v71.63a8,8,0,0,1-1.47,3.72l-5.5,9.06a5.52,5.52,0,0,1-5.14,3H39.54q-5.28,0-6.76-4.78-1.62,4.78-6.48,4.78H15.88q-4.5,0-6.48-3.3l-5.07-8.5a8.08,8.08,0,0,1-1.41-4V140a5.8,5.8,0,0,1,1.8-4.25A5.85,5.85,0,0,1,9,133.94a5.46,5.46,0,0,1,4,1.79A5.92,5.92,0,0,1,14.75,140v69.87l3.46,5.62h5.07l3.73-5.9V170.46a5.87,5.87,0,0,1,5.91-5.9,5.89,5.89,0,0,1,5.92,5.9Z"/><path class="cls-1" d="M143.84,145.88H102V174.6h18a6,6,0,0,1,5.92,5.9,5.87,5.87,0,0,1-1.73,4.28,5.67,5.67,0,0,1-4.19,1.76H102v28.93h42a5.73,5.73,0,0,1,4.15,1.72,5.81,5.81,0,0,1,0,8.36,6,6,0,0,1-4.27,1.72H90.18V133.94h53.66a6.11,6.11,0,0,1,6.06,6,5.64,5.64,0,0,1-1.79,4.15A5.9,5.9,0,0,1,143.84,145.88Z"/><path class="cls-1" d="M231,145.88H189.13V174.6h18a6,6,0,0,1,5.91,5.9,5.86,5.86,0,0,1-1.72,4.28,5.67,5.67,0,0,1-4.19,1.76h-18v28.93h42a5.75,5.75,0,0,1,4.16,1.72,5.64,5.64,0,0,1,1.76,4.18,5.57,5.57,0,0,1-1.8,4.18,6,6,0,0,1-4.26,1.72H177.3V133.94H231a6.13,6.13,0,0,1,6.06,6,5.62,5.62,0,0,1-1.8,4.15A5.89,5.89,0,0,1,231,145.88Z"/><path class="cls-1" d="M264.27,221.37V140A5.89,5.89,0,0,1,266,135.7a5.65,5.65,0,0,1,4.19-1.76,5.89,5.89,0,0,1,5.91,5.91v27.89L314,135.49a6.56,6.56,0,0,1,4.44-1.55,5.47,5.47,0,0,1,4.16,1.81,5.91,5.91,0,0,1,1.69,4.15,5.22,5.22,0,0,1-1.94,4l-42.93,36.38,43,37a4.65,4.65,0,0,1,1.74,3.8,6.15,6.15,0,0,1-1.72,4.23,5.55,5.55,0,0,1-4.26,1.9,6.46,6.46,0,0,1-4.3-1.62L276.1,193.24v28.13a5.68,5.68,0,0,1-1.72,4.18,5.93,5.93,0,0,1-8.35,0A5.64,5.64,0,0,1,264.27,221.37Z"/><path class="cls-2" d="M56.73,361.07H2.92V320.34a11.53,11.53,0,0,1,3.49-8.43,11.33,11.33,0,0,1,8.34-3.51H50.67V279.68H8.42a5.9,5.9,0,1,1,0-11.79H50.67a11.62,11.62,0,0,1,8.45,3.47,11.27,11.27,0,0,1,3.52,8.32V308.4a11.44,11.44,0,0,1-3.52,8.47,11.62,11.62,0,0,1-8.45,3.47H14.75v28.93h42A5.77,5.77,0,0,1,60.88,351a5.84,5.84,0,0,1,0,8.36A5.73,5.73,0,0,1,56.73,361.07Z"/><path class="cls-2" d="M89.9,349.69V279.12a11.53,11.53,0,0,1,11.41-11.37h36.9a10.77,10.77,0,0,1,7.92,3.37,11,11,0,0,1,3.35,8v70.57a11.42,11.42,0,0,1-11.41,11.38H101.31A11.35,11.35,0,0,1,89.9,349.69Zm47.89-.42V279.68H101.73v69.59Z"/><path class="cls-2" d="M231,361.07h-53.8V320.34a11.56,11.56,0,0,1,3.48-8.43A11.37,11.37,0,0,1,189,308.4H224.9V279.68H182.65a5.68,5.68,0,0,1-4.23-1.72,6,6,0,0,1,0-8.35,5.68,5.68,0,0,1,4.23-1.72H224.9a11.64,11.64,0,0,1,8.46,3.47,11.31,11.31,0,0,1,3.52,8.32V308.4a11.48,11.48,0,0,1-3.52,8.47,11.64,11.64,0,0,1-8.46,3.47H189v28.93h42a5.79,5.79,0,0,1,4.16,1.72,5.84,5.84,0,0,1,0,8.36A5.75,5.75,0,0,1,231,361.07Z"/><path class="cls-2" d="M324,279.68V301.8q0,7.72-4.79,12.5a17.49,17.49,0,0,1,4.93,11.94v23a11.26,11.26,0,0,1-3.52,8.32,11.57,11.57,0,0,1-8.45,3.48H270.33a5.9,5.9,0,1,1,0-11.8H312v-23A5.92,5.92,0,0,0,310.3,322a5.62,5.62,0,0,0-4.19-1.79H282.3a5.79,5.79,0,0,1-4.19-1.68,6,6,0,0,1,0-8.4,5.74,5.74,0,0,1,4.19-1.72h23.95a5.73,5.73,0,0,0,4.15-1.72,5.61,5.61,0,0,0,1.76-4.17V279.68H269.91a5.9,5.9,0,1,1,0-11.79h42.25A11.81,11.81,0,0,1,324,279.68Z"/></g></g></svg>