<svg id="Camada_1" data-name="Camada 1" xmlns="http://www.w3.org/2000/svg" viewBox="0 0 396.31 448.4"><defs><style>.cls-1{fill:#c1c1c1;}.cls-2{fill:#fff;}.cls-3,.cls-4{fill:none;stroke-miterlimit:10;stroke-width:5px;}.cls-3{stroke:#70337f;}.cls-4{stroke:#a144b6;}</style></defs><path class="cls-1" d="M42.9,103.78H69a7.28,7.28,0,0,1,5.22,2.1,7,7,0,0,1,0,10.23,7.27,7.27,0,0,1-5.21,2.1H42A20.92,20.92,0,0,1,31.29,115q-5.52-3.27-7.67-7.31L6.9,75.42A32.37,32.37,0,0,1,3.53,61.15a29.27,29.27,0,0,1,3.19-14l16.9-31.88a22.26,22.26,0,0,1,7.5-7.87A17.76,17.76,0,0,1,40.94,4H69.56a6.94,6.94,0,0,1,5.13,2.15,7,7,0,0,1,2.11,5.07,7.26,7.26,0,0,1-2.11,5.2,6.87,6.87,0,0,1-5.13,2.19H42c-2.29,0-4.16,1.35-5.6,4.05L20.33,52.55a17.06,17.06,0,0,0-1.88,8.34,18.56,18.56,0,0,0,2.05,9L35.83,99.23A7.28,7.28,0,0,0,42.9,103.78Z"/><path class="cls-1" d="M163.42,14.57l16,32.4a32.15,32.15,0,0,1,0,28.62l-16,32.05q-5.08,10.58-17.24,10.57a18.6,18.6,0,0,1-10.38-3,19.61,19.61,0,0,1-6.94-7.57l-16-32a31,31,0,0,1-3.19-14.27A31.51,31.51,0,0,1,112.83,47l16-32.4Q134.29,4,146.18,4,158.26,4,163.42,14.57Zm-22.07,7.22-15,30.42a21.53,21.53,0,0,0-2.07,8.94,20.51,20.51,0,0,0,2.07,9l15.43,30.77a4.39,4.39,0,0,0,4.39,2.84,4.58,4.58,0,0,0,4.22-2.84l15.52-30.77a20.87,20.87,0,0,0,2.15-9,19.32,19.32,0,0,0-2.15-8.94L150.75,21.79q-1.47-3.34-4.57-3.35T141.35,21.79Z"/><path class="cls-1" d="M223.49,4h28.62A20,20,0,0,1,263,7.61a22.12,22.12,0,0,1,7.8,8.51L285.12,45a35.09,35.09,0,0,1,4.05,16.33,35.14,35.14,0,0,1-4.31,16.24L270.47,106.1a22,22,0,0,1-7.93,8.81,21,21,0,0,1-11.55,3.3H223.32a6.93,6.93,0,0,1-5.13-2.14,7.05,7.05,0,0,1-2.11-5.08,7.26,7.26,0,0,1,2.11-5.19,6.84,6.84,0,0,1,5.13-2.2h7.59v-85h-7.42a6.83,6.83,0,0,1-5.12-2.19,7.22,7.22,0,0,1-2.11-5.2,7,7,0,0,1,2.11-5.07A6.9,6.9,0,0,1,223.49,4Zm21.9,14.61v85.17l5.07,0q4.8,0,7.22-4.73L272,70.67q2.67-5.58,2.7-9.36a19.37,19.37,0,0,0-2.15-8.92L257.72,23a8,8,0,0,0-7.59-4.38Z"/><path class="cls-1" d="M388.72,18.61H337.53V53.76h22.06A7.34,7.34,0,0,1,366.83,61a7.18,7.18,0,0,1-2.11,5.24,6.94,6.94,0,0,1-5.13,2.15H337.53v35.41H388.9a7,7,0,0,1,5.08,2.1,7.09,7.09,0,0,1,0,10.23,7.31,7.31,0,0,1-5.22,2.1H323.05V4h65.67a7.16,7.16,0,0,1,5.22,2.19,7.12,7.12,0,0,1,2.2,5.2,6.87,6.87,0,0,1-2.2,5.07A7.24,7.24,0,0,1,388.72,18.61Z"/><path class="cls-1" d="M47,212.62v48l4.23,7h6l4.4-7.21V175.32A7.5,7.5,0,0,1,69,167.93a7.34,7.34,0,0,1,7.24,7.22v87.66a9.75,9.75,0,0,1-1.81,4.55l-6.72,11.09a6.76,6.76,0,0,1-6.29,3.69H47.84q-6.47,0-8.28-5.84-2,5.85-7.93,5.84H18.88c-3.68,0-6.32-1.34-7.93-4L4.74,267.7A9.84,9.84,0,0,1,3,262.81V175.32a7.07,7.07,0,0,1,2.2-5.2,7.12,7.12,0,0,1,5.21-2.19,6.68,6.68,0,0,1,5,2.19,7.26,7.26,0,0,1,2.11,5.2v85.51l4.22,6.87h6.21l4.56-7.21V212.62a7.2,7.2,0,0,1,7.24-7.22A7.19,7.19,0,0,1,47,212.62Z"/><path class="cls-1" d="M175.49,182.54h-51.2v35.15h22.06a7.34,7.34,0,0,1,7.24,7.22,7.18,7.18,0,0,1-2.11,5.24,6.94,6.94,0,0,1-5.13,2.15H124.29v35.4h51.37a7,7,0,0,1,5.08,2.11,7.09,7.09,0,0,1,0,10.23,7.27,7.27,0,0,1-5.21,2.1H109.81V167.93h65.68a7.5,7.5,0,0,1,7.41,7.39,6.84,6.84,0,0,1-2.2,5.07A7.2,7.2,0,0,1,175.49,182.54Z"/><path class="cls-1" d="M282.11,182.54h-51.2v35.15H253a7.34,7.34,0,0,1,7.24,7.22,7.18,7.18,0,0,1-2.11,5.24A6.94,6.94,0,0,1,253,232.3H230.91v35.4h51.37a7,7,0,0,1,5.08,2.11,7.09,7.09,0,0,1,0,10.23,7.29,7.29,0,0,1-5.21,2.1H216.43V167.93h65.68a7.5,7.5,0,0,1,7.41,7.39,6.84,6.84,0,0,1-2.2,5.07A7.22,7.22,0,0,1,282.11,182.54Z"/><path class="cls-1" d="M322.87,274.92v-99.6a7.19,7.19,0,0,1,2.12-5.24,7.22,7.22,0,0,1,12.36,5.07V209.3l46.37-39.48a8,8,0,0,1,5.43-1.89,6.69,6.69,0,0,1,5.09,2.2,7.22,7.22,0,0,1,2.07,5.09,6.34,6.34,0,0,1-2.37,4.94L341.4,224.69,394,270a5.73,5.73,0,0,1,2.14,4.65,7.56,7.56,0,0,1-2.11,5.17,6.77,6.77,0,0,1-5.22,2.32,8,8,0,0,1-5.26-2l-46.2-39.67v34.43a7.19,7.19,0,0,1-7.24,7.21A7,7,0,0,1,325,280,6.89,6.89,0,0,1,322.87,274.92Z"/><path class="cls-2" d="M42.9,99.78H69a7.28,7.28,0,0,1,5.22,2.1,7,7,0,0,1,0,10.23,7.27,7.27,0,0,1-5.21,2.1H42A20.92,20.92,0,0,1,31.29,111q-5.52-3.27-7.67-7.31L6.9,71.42A32.37,32.37,0,0,1,3.53,57.15a29.27,29.27,0,0,1,3.19-14l16.9-31.88a22.26,22.26,0,0,1,7.5-7.87A17.76,17.76,0,0,1,40.94,0H69.56a6.94,6.94,0,0,1,5.13,2.15A7,7,0,0,1,76.8,7.22a7.26,7.26,0,0,1-2.11,5.2,6.87,6.87,0,0,1-5.13,2.19H42c-2.29,0-4.16,1.35-5.6,4.05L20.33,48.55a17.06,17.06,0,0,0-1.88,8.34,18.56,18.56,0,0,0,2.05,9L35.83,95.23A7.28,7.28,0,0,0,42.9,99.78Z"/><path class="cls-2" d="M163.42,10.57l16,32.4a32.15,32.15,0,0,1,0,28.62l-16,32.05q-5.08,10.58-17.24,10.57a18.6,18.6,0,0,1-10.38-3,19.61,19.61,0,0,1-6.94-7.57l-16-32a31,31,0,0,1-3.19-14.27A31.51,31.51,0,0,1,112.83,43l16-32.4Q134.29,0,146.18,0,158.26,0,163.42,10.57Zm-22.07,7.22-15,30.42a21.53,21.53,0,0,0-2.07,8.94,20.51,20.51,0,0,0,2.07,9l15.43,30.77a4.39,4.39,0,0,0,4.39,2.84,4.58,4.58,0,0,0,4.22-2.84l15.52-30.77a20.87,20.87,0,0,0,2.15-9,19.32,19.32,0,0,0-2.15-8.94L150.75,17.79q-1.47-3.34-4.57-3.35T141.35,17.79Z"/><path class="cls-2" d="M223.49,0h28.62A20,20,0,0,1,263,3.61a22.12,22.12,0,0,1,7.8,8.51L285.12,41a35.09,35.09,0,0,1,4.05,16.33,35.14,35.14,0,0,1-4.31,16.24L270.47,102.1a22,22,0,0,1-7.93,8.81,21,21,0,0,1-11.55,3.3H223.32a6.93,6.93,0,0,1-5.13-2.14,7.05,7.05,0,0,1-2.11-5.08,7.26,7.26,0,0,1,2.11-5.19,6.84,6.84,0,0,1,5.13-2.2h7.59v-85h-7.42a6.83,6.83,0,0,1-5.12-2.19,7.22,7.22,0,0,1-2.11-5.2,7,7,0,0,1,2.11-5.07A6.9,6.9,0,0,1,223.49,0Zm21.9,14.61V99.78l5.07,0q4.8,0,7.22-4.73L272,66.67q2.67-5.58,2.7-9.36a19.37,19.37,0,0,0-2.15-8.92L257.72,19a8,8,0,0,0-7.59-4.38Z"/><path class="cls-2" d="M388.72,14.61H337.53V49.76h22.06A7.34,7.34,0,0,1,366.83,57a7.18,7.18,0,0,1-2.11,5.24,6.94,6.94,0,0,1-5.13,2.15H337.53V99.78H388.9a7,7,0,0,1,5.08,2.1,7.09,7.09,0,0,1,0,10.23,7.31,7.31,0,0,1-5.22,2.1H323.05V0h65.67a7.16,7.16,0,0,1,5.22,2.19,7.12,7.12,0,0,1,2.2,5.2,6.87,6.87,0,0,1-2.2,5.07A7.24,7.24,0,0,1,388.72,14.61Z"/><path class="cls-2" d="M47,208.62v48l4.23,7h6l4.4-7.21V171.32A7.5,7.5,0,0,1,69,163.93a7.34,7.34,0,0,1,7.24,7.22v87.66a9.75,9.75,0,0,1-1.81,4.55l-6.72,11.09a6.76,6.76,0,0,1-6.29,3.69H47.84q-6.47,0-8.28-5.84-2,5.85-7.93,5.84H18.88c-3.68,0-6.32-1.34-7.93-4L4.74,263.7A9.84,9.84,0,0,1,3,258.81V171.32a7.07,7.07,0,0,1,2.2-5.2,7.12,7.12,0,0,1,5.21-2.19,6.68,6.68,0,0,1,5,2.19,7.26,7.26,0,0,1,2.11,5.2v85.51l4.22,6.87h6.21l4.56-7.21V208.62a7.2,7.2,0,0,1,7.24-7.22A7.19,7.19,0,0,1,47,208.62Z"/><path class="cls-2" d="M175.49,178.54h-51.2v35.15h22.06a7.34,7.34,0,0,1,7.24,7.22,7.18,7.18,0,0,1-2.11,5.24,6.94,6.94,0,0,1-5.13,2.15H124.29v35.4h51.37a7,7,0,0,1,5.08,2.11,7.09,7.09,0,0,1,0,10.23,7.27,7.27,0,0,1-5.21,2.1H109.81V163.93h65.68a7.5,7.5,0,0,1,7.41,7.39,6.84,6.84,0,0,1-2.2,5.07A7.2,7.2,0,0,1,175.49,178.54Z"/><path class="cls-2" d="M282.11,178.54h-51.2v35.15H253a7.34,7.34,0,0,1,7.24,7.22,7.18,7.18,0,0,1-2.11,5.24A6.94,6.94,0,0,1,253,228.3H230.91v35.4h51.37a7,7,0,0,1,5.08,2.11,7.09,7.09,0,0,1,0,10.23,7.29,7.29,0,0,1-5.21,2.1H216.43V163.93h65.68a7.5,7.5,0,0,1,7.41,7.39,6.84,6.84,0,0,1-2.2,5.07A7.22,7.22,0,0,1,282.11,178.54Z"/><path class="cls-2" d="M322.87,270.92v-99.6a7.19,7.19,0,0,1,2.12-5.24,7.22,7.22,0,0,1,12.36,5.07V205.3l46.37-39.48a8,8,0,0,1,5.43-1.89,6.69,6.69,0,0,1,5.09,2.2,7.22,7.22,0,0,1,2.07,5.09,6.34,6.34,0,0,1-2.37,4.94L341.4,220.69,394,266a5.73,5.73,0,0,1,2.14,4.65,7.56,7.56,0,0,1-2.11,5.17,6.77,6.77,0,0,1-5.22,2.32,8,8,0,0,1-5.26-2l-46.2-39.67v34.43a7.19,7.19,0,0,1-7.24,7.21A7,7,0,0,1,325,276,6.89,6.89,0,0,1,322.87,270.92Z"/><path class="cls-3" d="M68.87,445.9H3V396.05a14.13,14.13,0,0,1,4.26-10.31,13.92,13.92,0,0,1,10.22-4.3h44V346.29H9.74a7.12,7.12,0,0,1-7.24-7.21A7,7,0,0,1,4.57,334a7,7,0,0,1,5.17-2.1H61.46a14.19,14.19,0,0,1,10.34,4.25,13.82,13.82,0,0,1,4.31,10.18v35.15A14,14,0,0,1,71.8,391.8a14.19,14.19,0,0,1-10.34,4.25h-44v35.41H68.87A7,7,0,0,1,74,433.57a7.12,7.12,0,0,1,0,10.22A7,7,0,0,1,68.87,445.9Z"/><path class="cls-3" d="M109.46,432V345.61a14.1,14.1,0,0,1,14-13.92h45.16a13.2,13.2,0,0,1,9.7,4.12,13.44,13.44,0,0,1,4.09,9.8V432a13.95,13.95,0,0,1-14,13.92h-45a13.88,13.88,0,0,1-14-13.92Zm58.61-.52V346.29H123.94v85.17Z"/><path class="cls-3" d="M282.11,445.9H216.26V396.05a14.13,14.13,0,0,1,4.26-10.31,13.92,13.92,0,0,1,10.22-4.3h43.95V346.29H223a7.12,7.12,0,0,1-7.24-7.21,7,7,0,0,1,2.07-5.12,7,7,0,0,1,5.17-2.1h51.71A14.21,14.21,0,0,1,285,336.11a13.81,13.81,0,0,1,4.3,10.18v35.15A14,14,0,0,1,285,391.8a14.21,14.21,0,0,1-10.35,4.25H230.74v35.41h51.37a7,7,0,0,1,5.08,2.11,7.15,7.15,0,0,1,0,10.22A7,7,0,0,1,282.11,445.9Z"/><path class="cls-3" d="M370.37,438.68V408.6H326.75V339.08a7.5,7.5,0,0,1,7.42-7.39,6.9,6.9,0,0,1,5.08,2.19,7.14,7.14,0,0,1,2.15,5.2V394h29V351.71a7.22,7.22,0,0,1,2.11-5.2,7.09,7.09,0,0,1,10.25,0,7.23,7.23,0,0,1,2.12,5.2V394a7.22,7.22,0,1,1,0,14.44v30.25a6.85,6.85,0,0,1-2.16,5.11,7.23,7.23,0,0,1-10.21,0A6.92,6.92,0,0,1,370.37,438.68Z"/><path class="cls-4" d="M68.87,441.9H3V392.05a14.13,14.13,0,0,1,4.26-10.31,13.92,13.92,0,0,1,10.22-4.3h44V342.29H9.74a7.12,7.12,0,0,1-7.24-7.21A7,7,0,0,1,4.57,330a7,7,0,0,1,5.17-2.1H61.46a14.19,14.19,0,0,1,10.34,4.25,13.82,13.82,0,0,1,4.31,10.18v35.15A14,14,0,0,1,71.8,387.8a14.19,14.19,0,0,1-10.34,4.25h-44v35.41H68.87A7,7,0,0,1,74,429.57a7.12,7.12,0,0,1,0,10.22A7,7,0,0,1,68.87,441.9Z"/><path class="cls-4" d="M109.46,428V341.61a14.1,14.1,0,0,1,14-13.92h45.16a13.2,13.2,0,0,1,9.7,4.12,13.44,13.44,0,0,1,4.09,9.8V428a13.95,13.95,0,0,1-14,13.92h-45a13.88,13.88,0,0,1-14-13.92Zm58.61-.52V342.29H123.94v85.17Z"/><path class="cls-4" d="M282.11,441.9H216.26V392.05a14.13,14.13,0,0,1,4.26-10.31,13.92,13.92,0,0,1,10.22-4.3h43.95V342.29H223a7.12,7.12,0,0,1-7.24-7.21,7,7,0,0,1,2.07-5.12,7,7,0,0,1,5.17-2.1h51.71A14.21,14.21,0,0,1,285,332.11a13.81,13.81,0,0,1,4.3,10.18v35.15A14,14,0,0,1,285,387.8a14.21,14.21,0,0,1-10.35,4.25H230.74v35.41h51.37a7,7,0,0,1,5.08,2.11,7.15,7.15,0,0,1,0,10.22A7,7,0,0,1,282.11,441.9Z"/><path class="cls-4" d="M370.37,434.68V404.6H326.75V335.08a7.5,7.5,0,0,1,7.42-7.39,6.9,6.9,0,0,1,5.08,2.19,7.14,7.14,0,0,1,2.15,5.2V390h29V347.71a7.22,7.22,0,0,1,2.11-5.2,7.09,7.09,0,0,1,10.25,0,7.23,7.23,0,0,1,2.12,5.2V390a7.22,7.22,0,1,1,0,14.44v30.25a6.85,6.85,0,0,1-2.16,5.11,7.23,7.23,0,0,1-10.21,0A6.92,6.92,0,0,1,370.37,434.68Z"/></svg>