<svg xmlns="http://www.w3.org/2000/svg" viewBox="0 0 108.36 122.66"><defs><style>.cls-1,.cls-2{fill:none;stroke-miterlimit:10;stroke-width:5px;}.cls-1{stroke:#A144B6;}.cls-2{stroke:#fff;}</style></defs><g id="Layer_2" data-name="Layer 2"><g id="Layer_1-2" data-name="Layer 1"><path class="cls-1" d="M52.74,68.05q.24,1.19.57,2.34A35.64,35.64,0,1,1,73.1,31.22a36.37,36.37,0,0,1,.65,5.34A26.82,26.82,0,0,0,52.74,68.05Z"/><path class="cls-2" d="M84.24,89.14a25.77,25.77,0,0,1-3.33.44A19.26,19.26,0,0,0,61.62,82q-.54.1-1,.24a26.78,26.78,0,0,1-7.26-11.89q-.33-1.15-.57-2.34a26.82,26.82,0,0,1,21-31.49l.09,0a26.81,26.81,0,0,1,10.4,52.6Z"/><path class="cls-1" d="M69.09,119.79a19.24,19.24,0,0,1-8.52-37.51q.51-.14,1-.24a19.24,19.24,0,0,1,7.47,37.75Z"/></g></g></svg>